<?xml version="1.0" standalone="no"?>
<!DOCTYPE svg PUBLIC "-//W3C//DTD SVG 20010904//EN"
 "http://www.w3.org/TR/2001/REC-SVG-20010904/DTD/svg10.dtd">
<svg version="1.0" xmlns="http://www.w3.org/2000/svg"
 width="896.000000pt" height="896.000000pt" viewBox="0 0 896.000000 896.000000"
 preserveAspectRatio="xMidYMid meet">
<metadata>
Created by potrace 1.16, written by Peter Selinger 2001-2019
</metadata>
<g transform="translate(0.000000,896.000000) scale(0.100000,-0.100000)"
fill="#000000" stroke="none">
<path d="M4145 8780 c-106 -6 -167 -15 -335 -51 -55 -12 -108 -36 -250 -113
-36 -19 -81 -42 -101 -52 -38 -17 -67 -58 -49 -69 6 -4 22 3 36 14 20 16 30
18 45 10 27 -14 17 -24 -38 -39 -91 -23 -126 -46 -179 -111 -69 -87 -91 -128
-99 -185 -3 -27 -16 -68 -28 -90 -99 -188 -111 -228 -102 -323 12 -121 15
-732 4 -768 -9 -27 -6 -39 20 -89 17 -31 31 -63 31 -70 0 -8 10 -14 24 -14 36
0 44 -18 45 -95 2 -89 -8 -333 -15 -363 -2 -12 -15 -28 -29 -34 l-24 -11 31
-25 30 -25 -4 -101 c-3 -91 -1 -101 16 -104 17 -4 18 5 16 135 -2 218 5 353
24 418 9 33 29 103 45 155 16 52 36 124 45 160 8 36 25 99 36 140 21 74 58
207 83 305 8 28 19 59 25 70 6 11 23 49 38 85 40 92 69 137 133 199 56 55 56
55 135 62 84 8 157 -9 214 -50 15 -10 47 -24 70 -31 32 -8 42 -15 38 -26 -3
-8 3 -23 14 -34 11 -11 20 -24 20 -30 0 -19 40 -29 171 -42 168 -16 407 -15
448 2 16 6 37 23 46 36 8 13 26 31 40 40 23 15 26 15 51 -5 15 -12 35 -21 45
-21 26 0 49 38 49 81 0 19 3 38 6 42 9 8 55 -16 78 -42 12 -13 31 -21 51 -21
18 0 38 -7 45 -15 9 -11 23 -14 44 -10 33 6 45 -3 113 -90 57 -74 73 -117 98
-268 13 -81 26 -151 29 -156 15 -23 26 -211 16 -256 -17 -77 -32 -357 -20
-369 15 -15 30 11 30 53 0 46 18 155 36 217 8 28 14 60 14 72 0 12 9 50 19 84
11 35 27 87 36 117 9 30 21 84 26 120 5 36 11 83 15 105 7 43 -8 176 -36 311
-10 50 -21 123 -25 164 -4 41 -18 104 -32 140 -13 36 -31 89 -40 116 -26 84
-36 107 -57 131 -12 13 -32 37 -46 54 -14 16 -41 47 -61 68 -20 21 -39 48 -43
60 -5 13 -18 24 -34 27 -24 5 -81 29 -162 69 -23 11 -42 48 -23 45 4 -1 18 -1
31 0 30 1 28 21 -2 21 -14 0 -28 -4 -31 -10 -9 -14 -47 -12 -69 5 -11 8 -30
12 -47 8 -39 -7 -59 11 -59 56 0 51 -23 81 -64 81 -25 0 -35 6 -44 24 -8 18
-20 24 -57 28 -53 7 -67 16 -42 29 9 6 17 17 17 26 0 13 -10 14 -70 8 -59 -6
-71 -5 -76 9 -5 14 -25 16 -133 14 -69 0 -180 -4 -246 -8z"/>
<path d="M3903 6938 c-53 -26 -9 -62 88 -72 47 -5 77 -15 100 -32 18 -13 37
-24 42 -24 5 0 21 -9 36 -19 15 -11 38 -21 52 -23 13 -2 41 -10 62 -18 32 -12
38 -19 34 -37 -2 -13 0 -23 4 -23 5 0 9 5 9 12 0 6 10 32 22 56 15 32 18 49
11 60 -13 22 -169 102 -198 102 -12 0 -42 7 -65 15 -49 17 -164 19 -197 3z"/>
<path d="M4890 6775 c-8 -2 -32 -7 -54 -10 -26 -4 -53 -20 -87 -52 -27 -25
-49 -51 -49 -57 0 -7 -13 -22 -30 -34 -31 -23 -39 -59 -18 -80 8 -8 17 -8 30
-1 25 13 28 10 47 -48 14 -41 21 -48 48 -54 41 -8 46 -3 27 27 -18 27 -11 44
17 44 12 0 19 -7 19 -20 0 -29 44 -70 76 -70 32 0 85 42 101 81 7 16 17 29 22
29 12 0 61 -70 61 -87 0 -12 16 -17 49 -15 8 0 24 -4 37 -8 14 -6 28 -4 40 5
18 13 17 15 -12 57 -18 23 -42 48 -55 55 -47 24 -95 42 -139 53 -25 6 -55 14
-67 17 -38 9 -48 30 -21 45 26 15 218 18 256 4 19 -7 22 -5 22 17 0 15 -7 32
-16 39 -8 7 -23 20 -33 29 -27 24 -101 39 -183 38 -40 -1 -80 -3 -88 -4z"/>
<path d="M3820 6748 c-100 -23 -130 -34 -130 -48 0 -5 12 -12 28 -15 15 -4 46
-15 70 -26 23 -10 49 -19 57 -19 19 0 19 16 0 24 -22 8 -8 33 26 45 25 8 31 7
44 -12 8 -12 15 -35 15 -52 0 -39 36 -75 75 -75 32 0 81 45 97 91 13 38 22 37
53 -8 23 -35 24 -39 8 -50 -9 -7 -23 -13 -31 -13 -7 0 -12 -6 -10 -12 3 -7 30
-17 61 -22 56 -9 57 -9 90 24 31 30 33 35 24 69 -13 49 -77 98 -147 111 -84
16 -235 11 -330 -12z"/>
<path d="M4517 5896 c-20 -8 -43 -19 -51 -25 -7 -6 -16 -8 -19 -4 -4 3 -7 -1
-7 -10 0 -9 12 -18 30 -22 18 -4 37 -18 47 -36 24 -40 66 -39 116 2 53 44 49
63 -18 88 -31 12 -57 21 -58 21 -1 -1 -19 -7 -40 -14z"/>
<path d="M4221 5774 c-47 -15 -91 -49 -91 -71 0 -9 15 -13 49 -13 27 0 62 -5
76 -10 18 -7 39 -7 63 0 29 8 41 6 62 -8 14 -9 42 -22 63 -27 48 -13 78 -55
57 -79 -17 -22 -181 -16 -227 7 -17 9 -50 16 -74 15 -24 -1 -87 2 -141 7 -82
7 -100 11 -123 33 -19 17 -25 32 -22 48 4 22 1 24 -32 25 -50 2 -69 0 -124
-12 -57 -13 -84 -50 -67 -94 13 -35 29 -39 93 -22 31 8 58 13 60 10 3 -2 54
-8 113 -13 75 -5 123 -15 154 -29 25 -11 59 -21 77 -21 17 0 55 -11 85 -25 44
-21 68 -25 143 -25 70 0 97 -4 121 -19 19 -12 66 -23 125 -29 52 -6 109 -18
127 -27 47 -24 61 -16 87 48 l24 57 -24 16 c-15 10 -32 13 -46 9 -14 -5 -19
-4 -15 4 10 15 -1 14 -66 -9 -85 -30 -197 -11 -198 33 0 4 5 7 10 7 6 0 8 11
4 25 -4 16 -2 25 6 25 6 0 10 11 8 28 -2 20 -11 29 -36 38 -17 5 -37 15 -44
22 -7 7 -24 12 -38 12 -37 0 -80 22 -80 42 0 16 -15 21 -87 32 -16 2 -48 -2
-72 -10z"/>
<path d="M3118 5421 c-13 -15 -36 -36 -51 -46 -15 -9 -27 -23 -27 -31 0 -7 -8
-19 -18 -26 -29 -21 -62 -74 -62 -99 0 -12 -6 -30 -14 -38 -32 -37 -46 -110
-46 -245 0 -202 22 -291 86 -352 25 -23 34 -40 34 -63 0 -17 4 -31 8 -31 4 0
15 -12 24 -27 20 -36 22 -184 2 -232 -19 -47 -18 -64 9 -89 l23 -22 38 32 c21
17 42 41 47 54 5 13 37 42 71 64 35 22 72 47 83 56 11 9 30 20 43 25 12 5 22
12 22 17 0 4 -25 32 -55 62 -30 30 -55 60 -55 67 0 7 -4 13 -10 13 -5 0 -40
31 -79 68 -59 58 -72 77 -87 127 -28 94 -22 178 24 355 55 214 65 390 21 390
-4 0 -18 -13 -31 -29z"/>
<path d="M4833 5168 c-26 -28 -55 -57 -63 -64 -8 -8 -53 -49 -98 -93 -46 -44
-98 -85 -115 -91 -18 -7 -48 -19 -68 -27 -31 -13 -45 -13 -95 -2 -33 7 -90 13
-129 15 -217 7 -353 27 -362 51 -3 8 -12 12 -20 9 -21 -9 -132 50 -178 93 -62
59 -110 91 -135 91 -18 0 -21 -4 -16 -24 3 -13 22 -48 41 -77 19 -30 35 -58
35 -63 0 -11 51 -56 64 -56 5 0 45 -31 90 -68 45 -38 99 -74 121 -81 94 -29
91 -27 91 -84 -1 -46 -6 -59 -38 -97 -31 -35 -38 -51 -38 -86 0 -33 -6 -49
-30 -74 -16 -18 -30 -42 -30 -55 0 -21 -6 -24 -62 -29 -35 -3 -77 -6 -95 -6
-21 0 -36 -7 -42 -18 -8 -16 -2 -25 37 -58 116 -95 177 -167 227 -269 43 -87
53 -100 75 -100 16 0 28 8 35 23 5 12 18 22 27 22 10 0 18 7 18 15 0 22 46 92
68 104 11 6 27 22 36 36 16 24 15 27 -5 54 -15 20 -27 27 -41 23 -23 -6 -38
12 -38 48 0 14 -11 57 -24 95 -18 53 -30 73 -50 83 -28 14 -30 20 -16 42 5 9
5 19 -1 26 -7 9 2 25 31 55 22 23 40 46 40 49 0 12 48 40 69 40 11 0 33 11 49
25 17 14 36 25 43 25 7 0 35 7 63 15 28 8 69 19 92 25 69 17 156 80 184 134
13 26 44 66 69 87 25 22 53 54 64 72 19 32 131 144 175 174 12 8 22 22 22 29
0 28 -30 13 -77 -38z"/>
<path d="M2742 5159 c-24 -4 -81 -27 -128 -50 -72 -34 -90 -40 -109 -31 -13 6
-25 21 -27 33 -6 40 -29 44 -104 21 -38 -11 -94 -25 -124 -32 -30 -6 -77 -19
-105 -29 -106 -39 -244 -81 -267 -81 -13 0 -35 -8 -48 -17 -14 -10 -56 -26
-93 -35 -125 -32 -121 -28 -144 -158 -7 -39 -12 -45 -34 -48 -15 -2 -35 -12
-45 -23 -9 -10 -22 -19 -28 -19 -6 0 -47 -19 -91 -41 -44 -23 -97 -50 -117
-60 -20 -10 -39 -23 -43 -29 -3 -5 -36 -24 -73 -41 -37 -17 -76 -39 -87 -49
-11 -10 -32 -20 -46 -23 -14 -4 -39 -25 -56 -49 -17 -24 -45 -57 -61 -75 -17
-18 -45 -54 -63 -80 -19 -26 -43 -59 -55 -73 -13 -14 -41 -63 -63 -110 -23
-47 -59 -118 -80 -158 -22 -40 -46 -94 -54 -120 -28 -89 -110 -317 -122 -337
-6 -11 -20 -47 -30 -80 -9 -33 -23 -73 -30 -90 -24 -55 -38 -125 -31 -157 6
-31 23 -77 104 -283 48 -125 169 -372 242 -494 33 -57 60 -104 60 -107 0 -8
187 -283 244 -359 232 -308 559 -632 879 -869 287 -214 627 -404 957 -536 30
-12 64 -26 75 -31 44 -18 236 -82 350 -115 155 -45 374 -94 422 -94 19 0 21 4
18 38 -12 116 -41 238 -89 371 -9 24 -16 58 -16 76 0 18 -7 38 -15 45 -8 7
-17 28 -20 49 -4 20 -11 45 -16 56 -5 11 -15 55 -23 97 -8 43 -20 86 -25 97
-19 35 -13 285 10 391 31 148 37 171 59 232 11 32 20 66 20 77 0 11 9 48 21
83 11 34 23 81 25 103 3 22 16 59 28 81 13 23 26 57 30 77 3 19 24 76 46 127
22 52 40 100 40 108 0 8 6 28 13 45 53 125 68 192 73 327 5 158 -10 345 -37
458 -26 110 -36 138 -71 186 -15 21 -28 45 -28 53 0 21 29 27 48 10 9 -9 30
-20 45 -26 24 -9 26 -14 17 -30 -12 -24 -13 -65 -1 -89 5 -9 15 -44 21 -77 7
-33 16 -71 21 -85 12 -36 23 -205 23 -350 0 -131 -13 -221 -39 -272 -8 -17
-15 -35 -15 -41 0 -5 -6 -23 -14 -40 -52 -114 -66 -149 -66 -161 0 -7 -20 -74
-44 -147 -24 -74 -49 -156 -54 -184 -6 -27 -20 -81 -31 -120 -12 -38 -23 -92
-27 -120 -3 -27 -9 -63 -14 -80 -52 -175 -60 -216 -62 -316 -2 -73 1 -111 10
-121 17 -21 42 -106 42 -144 0 -17 7 -51 16 -75 8 -24 17 -82 19 -129 2 -55
15 -126 35 -200 18 -63 36 -131 41 -150 5 -19 12 -78 15 -130 3 -52 9 -98 13
-102 8 -9 94 -25 171 -33 30 -3 111 -12 180 -20 152 -18 574 -20 722 -3 57 6
123 20 147 30 41 17 43 20 37 50 -3 17 -13 39 -21 48 -17 19 -19 75 -4 140 6
25 15 72 21 105 10 55 22 79 118 235 5 8 20 34 34 56 16 25 28 66 33 105 7 55
11 65 35 77 20 9 32 10 51 1 21 -10 27 -22 37 -78 14 -85 41 -181 85 -306 19
-55 35 -109 35 -120 0 -12 4 -25 9 -30 5 -6 21 -47 36 -93 15 -46 34 -86 42
-89 62 -24 583 159 863 304 134 69 199 104 287 158 l82 49 -5 76 c-12 172 -40
427 -60 540 -9 47 -20 117 -25 155 -5 39 -17 108 -25 155 -14 69 -15 109 -8
210 5 69 9 229 9 355 0 234 -14 348 -50 430 -7 17 -15 60 -18 96 -2 37 -11 80
-20 95 -8 16 -20 49 -26 74 -6 25 -23 86 -37 135 -14 50 -32 115 -39 145 -8
30 -28 88 -44 130 -17 41 -40 105 -51 143 -18 59 -32 79 -102 155 -165 176
-328 322 -463 412 -112 75 -145 107 -145 144 0 29 -43 150 -63 174 -5 7 -44
29 -86 48 -42 20 -96 50 -121 68 -59 41 -80 54 -110 68 -14 7 -32 17 -40 24
-8 7 -36 23 -62 37 -42 22 -125 73 -261 159 -46 29 -77 35 -77 16 0 -7 5 -29
10 -49 5 -19 14 -75 19 -123 6 -57 14 -93 25 -105 15 -17 16 -30 7 -116 -6
-53 -18 -109 -26 -125 -21 -42 -19 -53 20 -100 33 -40 45 -83 26 -94 -5 -3
-28 -38 -51 -78 -24 -39 -65 -98 -91 -131 -44 -55 -61 -101 -33 -90 7 2 14
-10 18 -29 5 -27 -1 -47 -27 -96 -51 -95 -163 -206 -143 -142 3 11 9 29 12 40
4 12 2 20 -5 20 -6 0 -11 -9 -11 -20 0 -10 -8 -24 -19 -29 -10 -6 -22 -22 -25
-36 -4 -14 -13 -25 -21 -25 -9 0 -15 -9 -15 -21 0 -11 -16 -44 -35 -73 -19
-29 -35 -59 -35 -67 0 -8 -6 -23 -14 -34 -7 -11 -16 -37 -20 -58 -10 -53 -60
-159 -96 -202 -16 -19 -44 -19 -60 0 -10 12 -7 25 16 71 16 30 46 74 66 97 36
40 39 52 15 52 -7 0 -13 11 -15 25 -6 50 -11 55 -33 32 -11 -12 -29 -22 -40
-22 -11 0 -31 -12 -44 -26 -14 -15 -31 -24 -39 -21 -10 4 -12 0 -9 -14 4 -12
0 -19 -10 -19 -27 0 -39 28 -48 111 -5 44 -14 89 -19 99 -5 10 -10 33 -10 51
-1 76 -5 94 -22 97 -20 4 -78 -24 -78 -38 0 -11 -40 -50 -52 -50 -14 0 -9 47
6 59 8 7 17 28 21 48 4 21 16 55 27 77 27 52 35 138 15 154 -23 20 -62 -20
-103 -104 -19 -40 -41 -77 -48 -81 -8 -5 -23 -27 -35 -50 -12 -24 -25 -43 -30
-43 -17 0 -43 54 -52 109 -21 124 -52 211 -76 211 -16 0 -16 -10 1 -51 7 -19
17 -43 21 -54 5 -11 7 -26 6 -33 -1 -7 8 -30 20 -52 18 -32 20 -42 9 -54 -7
-9 -9 -23 -6 -32 4 -9 1 -33 -5 -53 -28 -89 -41 -121 -49 -121 -5 0 -11 -9
-15 -19 -3 -11 -13 -22 -22 -25 -22 -9 -80 11 -87 29 -3 8 -12 15 -21 15 -10
0 -15 10 -15 29 0 33 -17 51 -26 27 -3 -9 -10 -13 -15 -10 -5 3 -9 -4 -9 -14
0 -11 7 -23 16 -26 11 -4 14 -12 9 -24 -20 -50 -14 -63 27 -52 17 5 37 6 45 2
11 -7 10 -13 -7 -35 -29 -36 -75 -38 -84 -2 -4 14 -13 25 -21 25 -17 0 -19 18
-6 53 7 19 5 26 -12 37 -12 8 -31 15 -42 17 -11 2 -30 15 -43 29 -12 14 -35
29 -50 33 -30 8 -81 75 -82 106 0 14 -10 25 -30 32 -20 8 -30 18 -30 32 0 12
-4 21 -10 21 -5 0 -13 12 -16 28 -4 15 -16 33 -26 40 -10 7 -16 16 -14 20 2 4
-3 13 -11 21 -13 12 -14 5 -9 -55 4 -38 9 -84 12 -102 6 -38 -14 -52 -45 -30
-43 30 -142 174 -161 233 -7 22 -18 47 -24 55 -7 8 -27 51 -46 95 -32 73 -35
88 -34 170 0 50 4 135 8 190 6 85 4 101 -9 111 -9 7 -17 30 -19 55 -1 24 -10
61 -19 83 -10 21 -17 55 -17 76 0 22 -10 56 -25 81 -22 39 -23 51 -18 119 3
41 10 81 16 89 6 7 16 22 22 34 5 11 19 25 30 31 11 6 35 23 53 39 18 15 39
27 47 27 8 0 15 7 15 15 0 16 -13 17 -78 4z m2626 -2882 c2 -9 -2 -19 -10 -20
-52 -14 -131 -43 -175 -65 -43 -21 -54 -23 -67 -13 -33 28 -11 58 58 77 23 7
59 19 81 28 52 20 109 17 113 -7z m-610 -162 c17 -14 34 -25 39 -25 22 0 47
-42 45 -73 -4 -44 -16 -53 -41 -28 -30 30 -37 26 -33 -18 4 -42 -18 -95 -46
-109 -36 -19 -92 -2 -132 40 -21 22 -49 46 -62 52 -15 7 -23 20 -23 36 0 22 5
25 40 28 35 3 45 -2 75 -33 34 -35 60 -45 60 -24 0 6 -13 24 -30 39 -82 76 22
187 108 115z"/>
<path d="M4687 4875 c-17 -35 -23 -86 -32 -258 -5 -99 -12 -125 -47 -163 -24
-27 -66 -163 -61 -200 5 -38 -11 -64 -29 -46 -6 6 -15 12 -20 12 -10 0 3 -63
14 -71 6 -4 8 -17 6 -30 -2 -17 -9 -24 -25 -24 -39 0 -25 -38 20 -56 18 -6 37
-19 44 -27 20 -24 43 -7 43 31 0 47 20 63 57 44 15 -8 34 -12 41 -10 8 3 16
-4 19 -16 3 -12 10 -21 16 -21 14 0 36 31 37 51 0 9 7 19 15 23 23 8 18 32
-11 51 -20 13 -24 22 -19 38 13 45 15 154 3 200 -9 37 -9 69 -1 140 18 141 -7
352 -43 364 -5 2 -18 -12 -27 -32z"/>
<path d="M3140 4095 c-16 -19 3 -45 32 -45 10 0 21 -7 24 -15 4 -8 14 -15 24
-15 11 0 24 -16 36 -45 14 -34 23 -45 40 -45 14 0 25 8 29 20 3 11 11 20 16
20 5 0 9 9 9 19 0 27 -56 68 -105 77 -21 4 -48 15 -59 25 -24 23 -30 23 -46 4z"/>
<path d="M3376 3933 c-3 -16 -5 -36 -3 -47 2 -23 -31 -31 -53 -12 -20 17 -41
15 -53 -6 -14 -22 0 -38 62 -69 44 -21 51 -29 61 -69 11 -42 12 -44 26 -26 8
11 14 16 14 12 0 -14 28 21 32 40 7 39 42 12 64 -48 6 -18 34 -26 34 -10 0 12
-19 54 -66 146 -26 51 -49 82 -60 85 -11 2 -23 9 -27 17 -13 22 -25 16 -31
-13z"/>
</g>
</svg>
